<svg id="visual" viewBox="0 0 900 600" width="900" height="600" xmlns="http://www.w3.org/2000/svg" xmlns:xlink="http://www.w3.org/1999/xlink" version="1.1"><rect x="0" y="0" width="900" height="600" fill="#18181b"></rect><path d="M497 0L495 0L495 26L545 26L545 52L608 52L608 78L554 78L554 104L503 104L503 130L616 130L616 157L568 157L568 183L557 183L557 209L539 209L539 235L596 235L596 261L611 261L611 287L601 287L601 313L504 313L504 339L530 339L530 365L495 365L495 391L491 391L491 417L563 417L563 443L615 443L615 470L520 470L520 496L525 496L525 522L517 522L517 548L572 548L572 574L502 574L502 600L0 600L0 574L0 574L0 548L0 548L0 522L0 522L0 496L0 496L0 470L0 470L0 443L0 443L0 417L0 417L0 391L0 391L0 365L0 365L0 339L0 339L0 313L0 313L0 287L0 287L0 261L0 261L0 235L0 235L0 209L0 209L0 183L0 183L0 157L0 157L0 130L0 130L0 104L0 104L0 78L0 78L0 52L0 52L0 26L0 26L0 0L0 0Z" fill="#9900ff"></path><path d="M530 0L523 0L523 26L562 26L562 52L557 52L557 78L539 78L539 104L510 104L510 130L554 130L554 157L543 157L543 183L495 183L495 209L574 209L574 235L458 235L458 261L553 261L553 287L548 287L548 313L491 313L491 339L528 339L528 365L572 365L572 391L449 391L449 417L474 417L474 443L489 443L489 470L468 470L468 496L522 496L522 522L503 522L503 548L453 548L453 574L569 574L569 600L0 600L0 574L0 574L0 548L0 548L0 522L0 522L0 496L0 496L0 470L0 470L0 443L0 443L0 417L0 417L0 391L0 391L0 365L0 365L0 339L0 339L0 313L0 313L0 287L0 287L0 261L0 261L0 235L0 235L0 209L0 209L0 183L0 183L0 157L0 157L0 130L0 130L0 104L0 104L0 78L0 78L0 52L0 52L0 26L0 26L0 0L0 0Z" fill="#8c17f5"></path><path d="M459 0L449 0L449 26L457 26L457 52L458 52L458 78L456 78L456 104L503 104L503 130L485 130L485 157L415 157L415 183L412 183L412 209L457 209L457 235L514 235L514 261L482 261L482 287L468 287L468 313L473 313L473 339L430 339L430 365L465 365L465 391L466 391L466 417L439 417L439 443L498 443L498 470L419 470L419 496L449 496L449 522L449 522L449 548L520 548L520 574L422 574L422 600L0 600L0 574L0 574L0 548L0 548L0 522L0 522L0 496L0 496L0 470L0 470L0 443L0 443L0 417L0 417L0 391L0 391L0 365L0 365L0 339L0 339L0 313L0 313L0 287L0 287L0 261L0 261L0 235L0 235L0 209L0 209L0 183L0 183L0 157L0 157L0 130L0 130L0 104L0 104L0 78L0 78L0 52L0 52L0 26L0 26L0 0L0 0Z" fill="#8021ea"></path><path d="M423 0L394 0L394 26L449 26L449 52L418 52L418 78L443 78L443 104L371 104L371 130L405 130L405 157L385 157L385 183L454 183L454 209L450 209L450 235L438 235L438 261L477 261L477 287L406 287L406 313L437 313L437 339L461 339L461 365L380 365L380 391L405 391L405 417L442 417L442 443L368 443L368 470L455 470L455 496L429 496L429 522L364 522L364 548L392 548L392 574L477 574L477 600L0 600L0 574L0 574L0 548L0 548L0 522L0 522L0 496L0 496L0 470L0 470L0 443L0 443L0 417L0 417L0 391L0 391L0 365L0 365L0 339L0 339L0 313L0 313L0 287L0 287L0 261L0 261L0 235L0 235L0 209L0 209L0 183L0 183L0 157L0 157L0 130L0 130L0 104L0 104L0 78L0 78L0 52L0 52L0 26L0 26L0 0L0 0Z" fill="#7427df"></path><path d="M390 0L390 0L390 26L413 26L413 52L379 52L379 78L370 78L370 104L314 104L314 130L364 130L364 157L378 157L378 183L385 183L385 209L361 209L361 235L407 235L407 261L330 261L330 287L319 287L319 313L368 313L368 339L369 339L369 365L422 365L422 391L359 391L359 417L401 417L401 443L358 443L358 470L430 470L430 496L372 496L372 522L392 522L392 548L422 548L422 574L390 574L390 600L0 600L0 574L0 574L0 548L0 548L0 522L0 522L0 496L0 496L0 470L0 470L0 443L0 443L0 417L0 417L0 391L0 391L0 365L0 365L0 339L0 339L0 313L0 313L0 287L0 287L0 261L0 261L0 235L0 235L0 209L0 209L0 183L0 183L0 157L0 157L0 130L0 130L0 104L0 104L0 78L0 78L0 52L0 52L0 26L0 26L0 0L0 0Z" fill="#682cd4"></path><path d="M298 0L319 0L319 26L328 26L328 52L314 52L314 78L351 78L351 104L367 104L367 130L338 130L338 157L302 157L302 183L348 183L348 209L311 209L311 235L322 235L322 261L329 261L329 287L354 287L354 313L311 313L311 339L381 339L381 365L336 365L336 391L283 391L283 417L322 417L322 443L315 443L315 470L342 470L342 496L275 496L275 522L364 522L364 548L307 548L307 574L290 574L290 600L0 600L0 574L0 574L0 548L0 548L0 522L0 522L0 496L0 496L0 470L0 470L0 443L0 443L0 417L0 417L0 391L0 391L0 365L0 365L0 339L0 339L0 313L0 313L0 287L0 287L0 261L0 261L0 235L0 235L0 209L0 209L0 183L0 183L0 157L0 157L0 130L0 130L0 104L0 104L0 78L0 78L0 52L0 52L0 26L0 26L0 0L0 0Z" fill="#5e2ec9"></path><path d="M261 0L247 0L247 26L294 26L294 52L289 52L289 78L252 78L252 104L316 104L316 130L303 130L303 157L266 157L266 183L265 183L265 209L262 209L262 235L253 235L253 261L262 261L262 287L306 287L306 313L296 313L296 339L245 339L245 365L233 365L233 391L265 391L265 417L273 417L273 443L305 443L305 470L241 470L241 496L321 496L321 522L237 522L237 548L256 548L256 574L237 574L237 600L0 600L0 574L0 574L0 548L0 548L0 522L0 522L0 496L0 496L0 470L0 470L0 443L0 443L0 417L0 417L0 391L0 391L0 365L0 365L0 339L0 339L0 313L0 313L0 287L0 287L0 261L0 261L0 235L0 235L0 209L0 209L0 183L0 183L0 157L0 157L0 130L0 130L0 104L0 104L0 78L0 78L0 52L0 52L0 26L0 26L0 0L0 0Z" fill="#5430bd"></path><path d="M238 0L237 0L237 26L208 26L208 52L249 52L249 78L267 78L267 104L253 104L253 130L232 130L232 157L231 157L231 183L258 183L258 209L228 209L228 235L282 235L282 261L280 261L280 287L275 287L275 313L219 313L219 339L194 339L194 365L245 365L245 391L235 391L235 417L184 417L184 443L231 443L231 470L276 470L276 496L277 496L277 522L211 522L211 548L233 548L233 574L283 574L283 600L0 600L0 574L0 574L0 548L0 548L0 522L0 522L0 496L0 496L0 470L0 470L0 443L0 443L0 417L0 417L0 391L0 391L0 365L0 365L0 339L0 339L0 313L0 313L0 287L0 287L0 261L0 261L0 235L0 235L0 209L0 209L0 183L0 183L0 157L0 157L0 130L0 130L0 104L0 104L0 78L0 78L0 52L0 52L0 26L0 26L0 0L0 0Z" fill="#4b31b1"></path><path d="M180 0L157 0L157 26L205 26L205 52L167 52L167 78L197 78L197 104L191 104L191 130L224 130L224 157L191 157L191 183L219 183L219 209L148 209L148 235L234 235L234 261L220 261L220 287L169 287L169 313L177 313L177 339L142 339L142 365L217 365L217 391L164 391L164 417L231 417L231 443L143 443L143 470L161 470L161 496L182 496L182 522L202 522L202 548L143 548L143 574L170 574L170 600L0 600L0 574L0 574L0 548L0 548L0 522L0 522L0 496L0 496L0 470L0 470L0 443L0 443L0 417L0 417L0 391L0 391L0 365L0 365L0 339L0 339L0 313L0 313L0 287L0 287L0 261L0 261L0 235L0 235L0 209L0 209L0 183L0 183L0 157L0 157L0 130L0 130L0 104L0 104L0 78L0 78L0 52L0 52L0 26L0 26L0 0L0 0Z" fill="#4331a5"></path><path d="M115 0L137 0L137 26L133 26L133 52L151 52L151 78L112 78L112 104L104 104L104 130L106 130L106 157L134 157L134 183L149 183L149 209L122 209L122 235L143 235L143 261L181 261L181 287L144 287L144 313L135 313L135 339L130 339L130 365L188 365L188 391L104 391L104 417L111 417L111 443L176 443L176 470L157 470L157 496L139 496L139 522L103 522L103 548L151 548L151 574L185 574L185 600L0 600L0 574L0 574L0 548L0 548L0 522L0 522L0 496L0 496L0 470L0 470L0 443L0 443L0 417L0 417L0 391L0 391L0 365L0 365L0 339L0 339L0 313L0 313L0 287L0 287L0 261L0 261L0 235L0 235L0 209L0 209L0 183L0 183L0 157L0 157L0 130L0 130L0 104L0 104L0 78L0 78L0 52L0 52L0 26L0 26L0 0L0 0Z" fill="#3c3099"></path><path d="M80 0L136 0L136 26L129 26L129 52L50 52L50 78L94 78L94 104L59 104L59 130L99 130L99 157L81 157L81 183L121 183L121 209L76 209L76 235L67 235L67 261L50 261L50 287L100 287L100 313L109 313L109 339L78 339L78 365L132 365L132 391L65 391L65 417L141 417L141 443L124 443L124 470L64 470L64 496L88 496L88 522L137 522L137 548L56 548L56 574L64 574L64 600L0 600L0 574L0 574L0 548L0 548L0 522L0 522L0 496L0 496L0 470L0 470L0 443L0 443L0 417L0 417L0 391L0 391L0 365L0 365L0 339L0 339L0 313L0 313L0 287L0 287L0 261L0 261L0 235L0 235L0 209L0 209L0 183L0 183L0 157L0 157L0 130L0 130L0 104L0 104L0 78L0 78L0 52L0 52L0 26L0 26L0 0L0 0Z" fill="#362f8d"></path><path d="M52 0L81 0L81 26L40 26L40 52L23 52L23 78L80 78L80 104L74 104L74 130L14 130L14 157L71 157L71 183L86 183L86 209L56 209L56 235L12 235L12 261L45 261L45 287L81 287L81 313L17 313L17 339L47 339L47 365L8 365L8 391L91 391L91 417L83 417L83 443L26 443L26 470L26 470L26 496L18 496L18 522L12 522L12 548L46 548L46 574L82 574L82 600L0 600L0 574L0 574L0 548L0 548L0 522L0 522L0 496L0 496L0 470L0 470L0 443L0 443L0 417L0 417L0 391L0 391L0 365L0 365L0 339L0 339L0 313L0 313L0 287L0 287L0 261L0 261L0 235L0 235L0 209L0 209L0 183L0 183L0 157L0 157L0 130L0 130L0 104L0 104L0 78L0 78L0 52L0 52L0 26L0 26L0 0L0 0Z" fill="#312e81"></path></svg>