<svg id="visual" viewBox="0 0 900 600" width="900" height="600" xmlns="http://www.w3.org/2000/svg" xmlns:xlink="http://www.w3.org/1999/xlink" version="1.1"><g stroke-width="1" stroke-linejoin="bevel"><path d="M474 260L488 179L404 167Z" fill="#7e22ce" stroke="#7e22ce"></path><path d="M488 179L468 138L404 167Z" fill="#262552" stroke="#262552"></path><path d="M404 167L375 271L474 260Z" fill="#6c2abe" stroke="#6c2abe"></path><path d="M468 138L365 110L404 167Z" fill="#5b2dad" stroke="#5b2dad"></path><path d="M404 167L272 227L375 271Z" fill="#262552" stroke="#262552"></path><path d="M474 260L564 160L488 179Z" fill="#7e22ce" stroke="#7e22ce"></path><path d="M488 179L564 160L468 138Z" fill="#7e22ce" stroke="#7e22ce"></path><path d="M468 138L460 0L365 110Z" fill="#1d1d2d" stroke="#1d1d2d"></path><path d="M509 421L560 304L474 260Z" fill="#1d1d2d" stroke="#1d1d2d"></path><path d="M474 260L560 304L564 160Z" fill="#262552" stroke="#262552"></path><path d="M365 110L272 227L404 167Z" fill="#352c77" stroke="#352c77"></path><path d="M272 227L318 332L375 271Z" fill="#3f2e89" stroke="#3f2e89"></path><path d="M375 271L394 403L474 260Z" fill="#2d2964" stroke="#2d2964"></path><path d="M318 332L394 403L375 271Z" fill="#3f2e89" stroke="#3f2e89"></path><path d="M192 324L313 376L318 332Z" fill="#21213f" stroke="#21213f"></path><path d="M318 332L313 376L394 403Z" fill="#1d1d2d" stroke="#1d1d2d"></path><path d="M593 0L460 0L468 138Z" fill="#4c2e9b" stroke="#4c2e9b"></path><path d="M394 403L509 421L474 260Z" fill="#4c2e9b" stroke="#4c2e9b"></path><path d="M460 0L377 0L365 110Z" fill="#7e22ce" stroke="#7e22ce"></path><path d="M365 110L261 73L272 227Z" fill="#21213f" stroke="#21213f"></path><path d="M683 180L619 80L564 160Z" fill="#5b2dad" stroke="#5b2dad"></path><path d="M564 160L619 80L468 138Z" fill="#262552" stroke="#262552"></path><path d="M334 0L261 73L365 110Z" fill="#5b2dad" stroke="#5b2dad"></path><path d="M377 0L334 0L365 110Z" fill="#18181b" stroke="#18181b"></path><path d="M621 414L670 274L560 304Z" fill="#7e22ce" stroke="#7e22ce"></path><path d="M560 304L670 274L564 160Z" fill="#3f2e89" stroke="#3f2e89"></path><path d="M670 274L683 180L564 160Z" fill="#7e22ce" stroke="#7e22ce"></path><path d="M261 73L198 173L272 227Z" fill="#6c2abe" stroke="#6c2abe"></path><path d="M272 227L192 324L318 332Z" fill="#2d2964" stroke="#2d2964"></path><path d="M719 0L593 0L619 80Z" fill="#262552" stroke="#262552"></path><path d="M619 80L593 0L468 138Z" fill="#7e22ce" stroke="#7e22ce"></path><path d="M394 403L418 479L509 421Z" fill="#262552" stroke="#262552"></path><path d="M333 494L418 479L394 403Z" fill="#352c77" stroke="#352c77"></path><path d="M539 473L621 414L509 421Z" fill="#4c2e9b" stroke="#4c2e9b"></path><path d="M509 421L621 414L560 304Z" fill="#3f2e89" stroke="#3f2e89"></path><path d="M198 173L192 324L272 227Z" fill="#352c77" stroke="#352c77"></path><path d="M313 376L333 494L394 403Z" fill="#2d2964" stroke="#2d2964"></path><path d="M418 479L539 473L509 421Z" fill="#3f2e89" stroke="#3f2e89"></path><path d="M261 73L172 125L198 173Z" fill="#4c2e9b" stroke="#4c2e9b"></path><path d="M198 173L118 312L192 324Z" fill="#7e22ce" stroke="#7e22ce"></path><path d="M211 0L172 125L261 73Z" fill="#6c2abe" stroke="#6c2abe"></path><path d="M772 160L728 138L683 180Z" fill="#7e22ce" stroke="#7e22ce"></path><path d="M683 180L728 138L619 80Z" fill="#3f2e89" stroke="#3f2e89"></path><path d="M772 160L683 180L816 270Z" fill="#352c77" stroke="#352c77"></path><path d="M512 600L564 486L539 473Z" fill="#3f2e89" stroke="#3f2e89"></path><path d="M539 473L564 486L621 414Z" fill="#6c2abe" stroke="#6c2abe"></path><path d="M117 389L196 388L192 324Z" fill="#18181b" stroke="#18181b"></path><path d="M192 324L196 388L313 376Z" fill="#1d1d2d" stroke="#1d1d2d"></path><path d="M201 498L333 494L313 376Z" fill="#5b2dad" stroke="#5b2dad"></path><path d="M418 479L512 600L539 473Z" fill="#352c77" stroke="#352c77"></path><path d="M334 0L211 0L261 73Z" fill="#352c77" stroke="#352c77"></path><path d="M816 270L683 180L670 274Z" fill="#1d1d2d" stroke="#1d1d2d"></path><path d="M728 138L719 0L619 80Z" fill="#6c2abe" stroke="#6c2abe"></path><path d="M70 121L106 174L172 125Z" fill="#6c2abe" stroke="#6c2abe"></path><path d="M172 125L106 174L198 173Z" fill="#2d2964" stroke="#2d2964"></path><path d="M106 174L118 312L198 173Z" fill="#6c2abe" stroke="#6c2abe"></path><path d="M708 472L721 418L621 414Z" fill="#6c2abe" stroke="#6c2abe"></path><path d="M621 414L721 418L670 274Z" fill="#3f2e89" stroke="#3f2e89"></path><path d="M828 81L719 0L728 138Z" fill="#6c2abe" stroke="#6c2abe"></path><path d="M0 294L117 389L118 312Z" fill="#3f2e89" stroke="#3f2e89"></path><path d="M118 312L117 389L192 324Z" fill="#262552" stroke="#262552"></path><path d="M196 388L201 498L313 376Z" fill="#21213f" stroke="#21213f"></path><path d="M127 492L201 498L196 388Z" fill="#352c77" stroke="#352c77"></path><path d="M564 486L708 472L621 414Z" fill="#3f2e89" stroke="#3f2e89"></path><path d="M721 418L816 270L670 274Z" fill="#262552" stroke="#262552"></path><path d="M772 160L828 81L728 138Z" fill="#4c2e9b" stroke="#4c2e9b"></path><path d="M834 434L816 270L721 418Z" fill="#21213f" stroke="#21213f"></path><path d="M119 0L70 121L172 125Z" fill="#1d1d2d" stroke="#1d1d2d"></path><path d="M106 174L0 226L118 312Z" fill="#7e22ce" stroke="#7e22ce"></path><path d="M211 0L119 0L172 125Z" fill="#21213f" stroke="#21213f"></path><path d="M333 494L418 600L418 479Z" fill="#7e22ce" stroke="#7e22ce"></path><path d="M564 486L576 600L708 472Z" fill="#7e22ce" stroke="#7e22ce"></path><path d="M265 600L418 600L333 494Z" fill="#21213f" stroke="#21213f"></path><path d="M418 600L512 600L418 479Z" fill="#18181b" stroke="#18181b"></path><path d="M900 113L828 81L772 160Z" fill="#6c2abe" stroke="#6c2abe"></path><path d="M512 600L576 600L564 486Z" fill="#262552" stroke="#262552"></path><path d="M117 389L127 492L196 388Z" fill="#2d2964" stroke="#2d2964"></path><path d="M201 498L265 600L333 494Z" fill="#2d2964" stroke="#2d2964"></path><path d="M0 473L127 492L117 389Z" fill="#352c77" stroke="#352c77"></path><path d="M212 600L265 600L201 498Z" fill="#1d1d2d" stroke="#1d1d2d"></path><path d="M709 600L772 479L708 472Z" fill="#6c2abe" stroke="#6c2abe"></path><path d="M708 472L772 479L721 418Z" fill="#7e22ce" stroke="#7e22ce"></path><path d="M828 81L818 0L719 0Z" fill="#1d1d2d" stroke="#1d1d2d"></path><path d="M0 106L0 226L70 121Z" fill="#18181b" stroke="#18181b"></path><path d="M70 121L0 226L106 174Z" fill="#1d1d2d" stroke="#1d1d2d"></path><path d="M0 226L0 294L118 312Z" fill="#6c2abe" stroke="#6c2abe"></path><path d="M117 600L212 600L201 498Z" fill="#262552" stroke="#262552"></path><path d="M772 479L834 434L721 418Z" fill="#7e22ce" stroke="#7e22ce"></path><path d="M816 270L900 231L772 160Z" fill="#18181b" stroke="#18181b"></path><path d="M0 0L0 106L70 121Z" fill="#7e22ce" stroke="#7e22ce"></path><path d="M900 325L900 231L816 270Z" fill="#2d2964" stroke="#2d2964"></path><path d="M828 81L900 0L818 0Z" fill="#3f2e89" stroke="#3f2e89"></path><path d="M900 231L900 113L772 160Z" fill="#21213f" stroke="#21213f"></path><path d="M772 479L900 475L834 434Z" fill="#262552" stroke="#262552"></path><path d="M576 600L709 600L708 472Z" fill="#21213f" stroke="#21213f"></path><path d="M834 434L900 325L816 270Z" fill="#5b2dad" stroke="#5b2dad"></path><path d="M0 294L0 407L117 389Z" fill="#21213f" stroke="#21213f"></path><path d="M127 492L117 600L201 498Z" fill="#352c77" stroke="#352c77"></path><path d="M119 0L0 0L70 121Z" fill="#2d2964" stroke="#2d2964"></path><path d="M900 475L900 407L834 434Z" fill="#1d1d2d" stroke="#1d1d2d"></path><path d="M834 434L900 407L900 325Z" fill="#7e22ce" stroke="#7e22ce"></path><path d="M0 600L117 600L127 492Z" fill="#1d1d2d" stroke="#1d1d2d"></path><path d="M900 113L900 0L828 81Z" fill="#5b2dad" stroke="#5b2dad"></path><path d="M0 407L0 473L117 389Z" fill="#1d1d2d" stroke="#1d1d2d"></path><path d="M806 600L900 475L772 479Z" fill="#262552" stroke="#262552"></path><path d="M709 600L806 600L772 479Z" fill="#4c2e9b" stroke="#4c2e9b"></path><path d="M0 473L0 600L127 492Z" fill="#3f2e89" stroke="#3f2e89"></path><path d="M806 600L900 600L900 475Z" fill="#5b2dad" stroke="#5b2dad"></path></g></svg>