<svg id="visual" viewBox="0 0 900 600" width="900" height="600" xmlns="http://www.w3.org/2000/svg" xmlns:xlink="http://www.w3.org/1999/xlink" version="1.1"><rect x="0" y="0" width="900" height="600" fill="#7e22ce"></rect><path d="M0 67L21.5 64.8C43 62.7 86 58.3 128.8 61.8C171.7 65.3 214.3 76.7 257.2 79.7C300 82.7 343 77.3 385.8 68.5C428.7 59.7 471.3 47.3 514.2 46.8C557 46.3 600 57.7 642.8 65C685.7 72.3 728.3 75.7 771.2 77C814 78.3 857 77.7 878.5 77.3L900 77L900 0L878.5 0C857 0 814 0 771.2 0C728.3 0 685.7 0 642.8 0C600 0 557 0 514.2 0C471.3 0 428.7 0 385.8 0C343 0 300 0 257.2 0C214.3 0 171.7 0 128.8 0C86 0 43 0 21.5 0L0 0Z" fill="#18181b" stroke-linecap="round" stroke-linejoin="miter"></path></svg>