<svg id="visual" viewBox="0 0 900 600" width="900" height="600" xmlns="http://www.w3.org/2000/svg" xmlns:xlink="http://www.w3.org/1999/xlink" version="1.1"><rect x="0" y="0" width="900" height="600" fill="#18181b"></rect><path d="M0 421L21.5 413.2C43 405.3 86 389.7 128.8 382.5C171.7 375.3 214.3 376.7 257.2 384.8C300 393 343 408 385.8 410.8C428.7 413.7 471.3 404.3 514.2 405.5C557 406.7 600 418.3 642.8 412C685.7 405.7 728.3 381.3 771.2 368.3C814 355.3 857 353.7 878.5 352.8L900 352L900 601L878.5 601C857 601 814 601 771.2 601C728.3 601 685.7 601 642.8 601C600 601 557 601 514.2 601C471.3 601 428.7 601 385.8 601C343 601 300 601 257.2 601C214.3 601 171.7 601 128.8 601C86 601 43 601 21.5 601L0 601Z" fill="#710f3b"></path><path d="M0 423L21.5 428.3C43 433.7 86 444.3 128.8 443.7C171.7 443 214.3 431 257.2 425C300 419 343 419 385.8 421.8C428.7 424.7 471.3 430.3 514.2 437.8C557 445.3 600 454.7 642.8 452C685.7 449.3 728.3 434.7 771.2 430.2C814 425.7 857 431.3 878.5 434.2L900 437L900 601L878.5 601C857 601 814 601 771.2 601C728.3 601 685.7 601 642.8 601C600 601 557 601 514.2 601C471.3 601 428.7 601 385.8 601C343 601 300 601 257.2 601C214.3 601 171.7 601 128.8 601C86 601 43 601 21.5 601L0 601Z" fill="#840255"></path><path d="M0 452L21.5 458.7C43 465.3 86 478.7 128.8 488C171.7 497.3 214.3 502.7 257.2 500.7C300 498.7 343 489.3 385.8 482.7C428.7 476 471.3 472 514.2 473.7C557 475.3 600 482.7 642.8 484.2C685.7 485.7 728.3 481.3 771.2 475.2C814 469 857 461 878.5 457L900 453L900 601L878.5 601C857 601 814 601 771.2 601C728.3 601 685.7 601 642.8 601C600 601 557 601 514.2 601C471.3 601 428.7 601 385.8 601C343 601 300 601 257.2 601C214.3 601 171.7 601 128.8 601C86 601 43 601 21.5 601L0 601Z" fill="#900076"></path><path d="M0 537L21.5 530.3C43 523.7 86 510.3 128.8 510.2C171.7 510 214.3 523 257.2 524.5C300 526 343 516 385.8 510.5C428.7 505 471.3 504 514.2 503.2C557 502.3 600 501.7 642.8 502.3C685.7 503 728.3 505 771.2 505.2C814 505.3 857 503.7 878.5 502.8L900 502L900 601L878.5 601C857 601 814 601 771.2 601C728.3 601 685.7 601 642.8 601C600 601 557 601 514.2 601C471.3 601 428.7 601 385.8 601C343 601 300 601 257.2 601C214.3 601 171.7 601 128.8 601C86 601 43 601 21.5 601L0 601Z" fill="#92009e"></path><path d="M0 557L21.5 559C43 561 86 565 128.8 559.7C171.7 554.3 214.3 539.7 257.2 538.3C300 537 343 549 385.8 550.2C428.7 551.3 471.3 541.7 514.2 536.3C557 531 600 530 642.8 532.2C685.7 534.3 728.3 539.7 771.2 544.3C814 549 857 553 878.5 555L900 557L900 601L878.5 601C857 601 814 601 771.2 601C728.3 601 685.7 601 642.8 601C600 601 557 601 514.2 601C471.3 601 428.7 601 385.8 601C343 601 300 601 257.2 601C214.3 601 171.7 601 128.8 601C86 601 43 601 21.5 601L0 601Z" fill="#7e22ce"></path></svg>